# File created by Blade
# Date/Time:  Thu Sep 25 15:55:53 2014
# Frame Rate: 120.000 fps
#------------------------------------------------------
:FULLY-SPECIFIED
:DEGREES
503
root -4.983640 33.899594 -0.014507 15.119981 3.484295 20.735642
Spine -7.111419 2.486228 -4.027091
Head -24.100831 -7.807911 -1.525722
LeftShoulder -5.543674 23.779380 8.089895
LeftArm 24.844727 5.986085 -69.081015
LeftForeArm 17.380519 -0.000000 53.415860
LeftHand -25.647376 -0.000000 6.596077
LeftHandThumb1 -26.253704 0.000000 33.147579
RightShoulder -12.466509 8.464084 -28.956677
RightArm -10.612209 -14.070687 80.489396
RightForeArm -23.851079 -0.000000 43.764494
RightHand -2.176851 -0.000000 1.000801
RightHandThumb1 -24.326973 -0.000000 -32.862282
LeftUpLeg -21.228830 11.715764 4.100055
LeftLeg 9.497249 -0.000000 -0.000000
LeftFoot 17.327292 3.555251 -30.279479
LeftToeBase -0.408389 -0.000000 0.000000
RightUpLeg -19.962708 -11.808689 -12.546097
RightLeg 15.953053 -0.000000 -0.000000
RightFoot -13.923237 -2.915263 0.221002
RightToeBase -1.564813 -0.000000 0.000000
504
root -4.969960 33.863542 0.001033 14.991467 2.921680 20.051608
Spine -7.117352 2.780187 -3.487550
Head -24.268879 -7.564957 -1.432224
LeftShoulder -5.705567 23.935402 8.133691
LeftArm 24.290235 6.323392 -69.802205
LeftForeArm 17.104358 0.000000 52.979732
LeftHand -25.553037 -0.000000 6.989017
LeftHandThumb1 -26.253704 0.000000 33.147579
RightShoulder -12.499678 8.431717 -28.858610
RightArm -10.615472 -14.427465 80.583241
RightForeArm -23.620413 -0.000000 43.653432
RightHand -2.364651 -0.000000 0.796289
RightHandThumb1 -24.326973 -0.000000 -32.862282
LeftUpLeg -20.972760 11.288683 3.228184
LeftLeg 9.437151 -0.000000 -0.000000
LeftFoot 16.601649 3.107235 -31.135883
LeftToeBase 0.451063 -0.000000 -0.000000
RightUpLeg -20.055599 -11.196190 -12.003668
RightLeg 15.902749 -0.000000 -0.000000
RightFoot -13.937525 -2.861863 0.660043
RightToeBase -1.800138 -0.000000 0.000000
505
root -4.957382 33.823837 0.013967 14.855465 2.426093 19.366090
Spine -7.082223 3.104407 -2.927471
Head -24.418274 -7.347481 -1.346267
LeftShoulder -5.866391 24.135323 8.152092
LeftArm 23.942181 6.755371 -70.448229
LeftForeArm 16.828719 0.000000 52.452883
LeftHand -25.606926 0.000000 7.476495
LeftHandThumb1 -26.253704 0.000000 33.147579
RightShoulder -12.581449 8.368573 -28.847960
RightArm -10.643907 -14.498465 80.744793
RightForeArm -23.840821 -0.000000 43.500864
RightHand -2.207980 -0.000000 0.900436
RightHandThumb1 -24.326973 -0.000000 -32.862282
LeftUpLeg -20.748382 10.800966 2.440773
LeftLeg 9.349035 -0.000000 -0.000000
LeftFoot 15.648022 3.017563 -32.133744
LeftToeBase 0.068907 -0.000000 -0.000000
RightUpLeg -20.119147 -10.666962 -11.443665
RightLeg 15.914491 -0.000000 -0.000000
RightFoot -14.071737 -2.803083 0.864687
RightToeBase -1.764098 -0.000000 0.000000
506
root -4.950389 33.780917 0.018346 14.747338 2.012548 18.681000
Spine -7.057429 3.331618 -2.341740
Head -24.543750 -7.120751 -1.328757
LeftShoulder -5.969449 24.154936 8.160166
LeftArm 23.418002 7.390639 -70.873717
LeftForeArm 16.422218 -0.000000 51.934851
LeftHand -25.669055 0.000000 8.156906
LeftHandThumb1 -26.253704 0.000000 33.147579
RightShoulder -12.546377 8.300573 -28.866129
RightArm -10.706348 -14.619859 80.966225
RightForeArm -23.893952 0.000000 43.397835
RightHand -2.240386 0.000000 0.961656
RightHandThumb1 -24.326973 -0.000000 -32.862282
LeftUpLeg -20.624174 10.194121 1.770343
LeftLeg 9.385274 -0.000000 -0.000000
LeftFoot 14.479720 2.924042 -33.227689
LeftToeBase 0.165598 -0.000000 -0.000000
RightUpLeg -20.186973 -10.237639 -10.841672
RightLeg 15.925651 -0.000000 -0.000000
RightFoot -14.195698 -2.829875 0.868855
RightToeBase -1.802929 -0.000000 0.000000
507
root -4.947114 33.736869 0.032755 14.610613 1.527475 17.960222
Spine -7.022105 3.741065 -1.725816
Head -24.589660 -7.042644 -1.362066
LeftShoulder -6.104224 24.270569 7.959928
LeftArm 23.105165 8.297107 -70.773449
LeftForeArm 15.742404 -0.000000 51.426900
LeftHand -25.805278 -0.000000 8.671361
LeftHandThumb1 -26.253704 0.000000 33.147579
RightShoulder -12.560643 8.263557 -28.958001
RightArm -10.881171 -14.655673 81.233705
RightForeArm -24.112604 -0.000000 43.264002
RightHand -2.205152 -0.000000 1.111577
RightHandThumb1 -24.326973 -0.000000 -32.862282
LeftUpLeg -20.444896 9.773362 1.182019
LeftLeg 9.414251 -0.000000 -0.000000
LeftFoot 13.302628 2.616852 -34.387996
LeftToeBase 0.093217 -0.000000 -0.000000
RightUpLeg -20.210420 -9.958080 -10.175308
RightLeg 15.896850 -0.000000 -0.000000
RightFoot -14.315744 -2.538773 0.934287
RightToeBase -1.851158 -0.000000 0.000000
508
root -4.935483 33.693949 0.054623 14.444215 0.977806 17.301493
Spine -6.971306 4.169320 -1.197862
Head -24.556659 -6.866069 -1.421438
LeftShoulder -6.187553 24.355670 7.885383
LeftArm 22.737564 8.888344 -71.103676
LeftForeArm 15.448196 0.000000 50.749797
LeftHand -25.740060 0.000000 8.774936
LeftHandThumb1 -26.253704 0.000000 33.147579
RightShoulder -12.513460 8.265574 -29.017035
RightArm -11.106127 -14.640770 81.503929
RightForeArm -24.243388 -0.000000 43.158666
RightHand -2.259813 -0.000000 1.175546
RightHandThumb1 -24.326973 -0.000000 -32.862282
LeftUpLeg -20.232564 9.491837 0.561470
LeftLeg 9.475114 -0.000000 -0.000000
LeftFoot 12.036191 2.029170 -35.330075
LeftToeBase 0.377328 -0.000000 -0.000000
RightUpLeg -20.187336 -9.614112 -9.616830
RightLeg 15.875582 -0.000000 -0.000000
RightFoot -14.493759 -2.209518 1.063919
RightToeBase -1.517427 -0.000000 0.000000
509
root -4.928128 33.652620 0.068278 14.315938 0.484888 16.648756
Spine -6.949527 4.603939 -0.695033
Head -24.486064 -6.692846 -1.438330
LeftShoulder -6.086504 24.353721 8.029223
LeftArm 22.321565 9.021623 -72.016198
LeftForeArm 15.621273 -0.000000 49.765377
LeftHand -25.457206 -0.000000 8.637807
LeftHandThumb1 -26.253704 0.000000 33.147579
RightShoulder -12.483534 8.230399 -29.069263
RightArm -11.323529 -14.667548 81.814641
RightForeArm -23.587343 -0.000000 42.984912
RightHand -2.284093 0.000000 0.799560
RightHandThumb1 -24.326973 -0.000000 -32.862282
LeftUpLeg -20.093316 9.198538 0.016296
LeftLeg 9.532390 -0.000000 -0.000000
LeftFoot 10.987614 1.282112 -36.157330
LeftToeBase 0.129798 -0.000000 -0.000000
RightUpLeg -20.205491 -9.414324 -9.017472
RightLeg 15.875896 -0.000000 -0.000000
RightFoot -14.647632 -1.774128 1.190221
RightToeBase -1.551682 -0.000000 0.000000
510
root -4.926110 33.609686 0.085484 14.218193 -0.037749 15.950752
Spine -6.963486 5.026947 -0.127083
Head -24.388180 -6.444151 -1.526558
LeftShoulder -6.189304 24.541636 7.886236
LeftArm 22.119484 9.456798 -72.326373
LeftForeArm 15.448753 -0.000000 48.928965
LeftHand -25.353804 -0.000000 8.302011
LeftHandThumb1 -26.253704 0.000000 33.147579
RightShoulder -12.464127 8.199437 -29.138128
RightArm -11.468449 -14.556989 82.021191
RightForeArm -24.193801 0.000000 42.786080
RightHand -2.027143 0.000000 1.345062
RightHandThumb1 -24.326973 -0.000000 -32.862282
LeftUpLeg -20.058528 9.146287 -0.473836
LeftLeg 9.753188 -0.000000 -0.000000
LeftFoot 10.150627 0.161318 -36.401081
LeftToeBase -0.249476 -0.000000 0.000000
RightUpLeg -20.228180 -9.153788 -8.371863
RightLeg 15.851154 -0.000000 -0.000000
RightFoot -14.802810 -1.286511 1.339622
RightToeBase -1.733925 -0.000000 0.000000
511
root -4.918756 33.571471 0.106649 14.134621 -0.619592 15.322590
Spine -7.013204 5.566652 0.333558
Head -24.232086 -6.212362 -1.603244
LeftShoulder -6.228336 24.611438 7.733554
LeftArm 21.845253 10.024775 -72.506962
LeftForeArm 15.192912 -0.000000 48.053262
LeftHand -25.241588 -0.000000 8.289141
LeftHandThumb1 -26.253704 0.000000 33.147579
RightShoulder -12.495370 8.151582 -29.211559
RightArm -11.650883 -14.515621 82.313945
RightForeArm -24.106409 -0.000000 42.552653
RightHand -2.002702 0.000000 1.298610
RightHandThumb1 -24.326973 -0.000000 -32.862282
LeftUpLeg -20.002810 9.151395 -1.003979
LeftLeg 9.876784 -0.000000 -0.000000
LeftFoot 9.523416 -0.760348 -36.933961
LeftToeBase -0.934450 -0.000000 0.000000
RightUpLeg -20.254380 -8.789326 -7.838718
RightLeg 15.827090 -0.000000 -0.000000
RightFoot -14.916175 -0.753505 1.587705
RightToeBase -1.875956 -0.000000 0.000000
512
root -4.912260 33.536527 0.127073 14.093011 -1.122591 14.724674
Spine -7.107245 6.004881 0.789017
Head -24.062064 -5.998182 -1.643268
LeftShoulder -6.331487 24.688260 7.522048
LeftArm 21.592104 10.551798 -72.645162
LeftForeArm 14.937040 0.000000 47.118031
LeftHand -25.093965 -0.000000 8.335682
LeftHandThumb1 -26.253704 0.000000 33.147579
RightShoulder -12.551824 8.100487 -29.274783
RightArm -11.797928 -14.504472 82.572216
RightForeArm -24.243923 0.000000 42.304302
RightHand -2.029600 -0.000000 1.284398
RightHandThumb1 -24.326973 -0.000000 -32.862282
LeftUpLeg -20.021418 9.104243 -1.473110
LeftLeg 10.048603 -0.000000 -0.000000
LeftFoot 9.094225 -1.819809 -37.378051
LeftToeBase -0.666943 -0.000000 0.000000
RightUpLeg -20.267660 -8.502042 -7.313124
RightLeg 15.757739 -0.000000 -0.000000
RightFoot -15.091123 -0.357049 1.809862
RightToeBase -2.184341 -0.000000 0.000000
513
root -4.900912 33.507031 0.141491 14.105435 -1.664991 14.160647
Spine -7.262812 6.469292 1.198724
Head -23.867001 -5.790865 -1.690915
LeftShoulder -6.496072 24.977626 7.261009
LeftArm 21.602625 11.031672 -72.725205
LeftForeArm 14.560272 -0.000000 46.099992
LeftHand -24.830941 0.000000 8.394554
LeftHandThumb1 -26.253704 0.000000 33.147579
RightShoulder -12.539349 8.066855 -29.324084
RightArm -11.987185 -14.471670 82.781623
RightForeArm -24.353735 0.000000 42.088368
RightHand -1.923500 -0.000000 1.472449
RightHandThumb1 -24.326973 -0.000000 -32.862282
LeftUpLeg -20.104369 9.090363 -1.954466
LeftLeg 10.195666 -0.000000 -0.000000
LeftFoot 8.751108 -2.711754 -37.491646
LeftToeBase -1.107378 -0.000000 0.000000
RightUpLeg -20.363969 -8.165580 -6.861673
RightLeg 15.724713 -0.000000 -0.000000
RightFoot -15.123363 0.171001 2.293886
RightToeBase -2.629592 -0.000000 0.000000
